# xmcd
#
# Track frame offsets:
#	150
#	16692
#	27450
#	37155
#	54952
#	67220
#	81726
#	96917
#	116167
#
# Disc length: 1950 seconds
#
# Revision: 1
# Processed by: cddbd v1.5.2PL0 Copyright (c) Steve Scherf et al.
# Submitted via: audiograbber 1.83.01
#
DISCID=7e079c09
DTITLE=Cosmic American Derelicts - Songs From The Homestead
DYEAR=2008
DGENRE=Country
TTITLE0=Sleepwalking Killer
TTITLE1=Same Old
TTITLE2=Barbed Wire Bed
TTITLE3=Bedside
TTITLE4=Dollar Bill Blues
TTITLE5=Drink You Off My Mind
TTITLE6=I Only Steal Drinks When I´m Drunk
TTITLE7=Lost Words
TTITLE8=Rocktopus
EXTD=
EXTT0=
EXTT1=
EXTT2=
EXTT3=
EXTT4=
EXTT5=
EXTT6=
EXTT7=
EXTT8=
PLAYORDER=
